<svg width="329" height="53" viewBox="0 0 329 53" fill="none" xmlns="http://www.w3.org/2000/svg">
<path d="M328.762 38.8874C328.762 46.3453 322.652 52.4553 315.194 52.4553H188.568C181.11 52.4553 175 46.3453 175 38.8874V14.7618C175 7.30391 181.11 1.19385 188.568 1.19385H315.194C322.652 1.19385 328.762 7.30391 328.762 14.7618V38.8874Z" fill="#404040"/>
<path d="M233.525 20.0435L232.875 18.4435H229.855L229.205 20.0435H228.405L231.075 13.5435H231.655L234.325 20.0435H233.525ZM230.135 17.7435H232.585L231.355 14.7135L230.135 17.7435ZM235.973 20.0435L234.163 15.4435H234.913L236.333 19.0535L237.763 15.4435H238.513L236.683 20.0435H235.973ZM242.983 15.4435H243.713V20.0435H242.983V19.2135C242.633 19.7635 242.053 20.1235 241.273 20.1235C239.963 20.1235 239.033 19.1135 239.033 17.7435C239.033 16.3635 239.963 15.3735 241.273 15.3735C242.053 15.3735 242.633 15.7235 242.983 16.2735V15.4435ZM241.363 19.4335C242.353 19.4335 242.983 18.7235 242.983 17.7435C242.983 16.7635 242.353 16.0635 241.363 16.0635C240.383 16.0635 239.733 16.7635 239.733 17.7435C239.733 18.7235 240.383 19.4335 241.363 19.4335ZM245.404 14.4635C245.184 14.4635 244.964 14.2835 244.964 14.0135C244.964 13.7435 245.184 13.5835 245.404 13.5835C245.624 13.5835 245.844 13.7435 245.844 14.0135C245.844 14.2835 245.624 14.4635 245.404 14.4635ZM245.764 20.0435H245.044V15.4435H245.774L245.764 20.0435ZM247.823 20.0435H247.103V13.5435H247.823V20.0435ZM252.895 15.4435H253.625V20.0435H252.895V19.2135C252.545 19.7635 251.965 20.1235 251.185 20.1235C249.875 20.1235 248.945 19.1135 248.945 17.7435C248.945 16.3635 249.875 15.3735 251.185 15.3735C251.965 15.3735 252.545 15.7235 252.895 16.2735V15.4435ZM251.275 19.4335C252.265 19.4335 252.895 18.7235 252.895 17.7435C252.895 16.7635 252.265 16.0635 251.275 16.0635C250.295 16.0635 249.645 16.7635 249.645 17.7435C249.645 18.7235 250.295 19.4335 251.275 19.4335ZM257.306 15.3735C258.616 15.3735 259.556 16.3635 259.556 17.7435C259.556 19.1135 258.616 20.1235 257.306 20.1235C256.526 20.1235 255.946 19.7635 255.596 19.2135V20.0435H254.876V13.5435H255.596V16.2735C255.946 15.7235 256.526 15.3735 257.306 15.3735ZM257.216 19.4335C258.196 19.4335 258.846 18.7235 258.846 17.7435C258.846 16.7635 258.196 16.0635 257.216 16.0635C256.236 16.0635 255.596 16.7635 255.596 17.7435C255.596 18.7235 256.236 19.4335 257.216 19.4335ZM261.387 20.0435H260.667V13.5435H261.387V20.0435ZM264.78 15.3635C266.1 15.3635 266.98 16.3735 266.98 17.7435V17.9735H263.21C263.3 18.8935 263.93 19.5035 264.84 19.5035C265.52 19.5035 265.99 19.1935 266.25 18.8035L266.76 19.1735C266.36 19.7635 265.68 20.1335 264.84 20.1335C263.44 20.1335 262.51 19.1135 262.51 17.7435C262.51 16.3735 263.4 15.3635 264.78 15.3635ZM264.78 15.9635C263.88 15.9635 263.31 16.5735 263.21 17.4735H266.31C266.21 16.6035 265.64 15.9635 264.78 15.9635ZM272.301 20.1335C270.921 20.1335 269.961 19.1135 269.961 17.7435C269.961 16.3635 270.921 15.3635 272.301 15.3635C273.681 15.3635 274.641 16.3635 274.641 17.7435C274.641 19.1135 273.681 20.1335 272.301 20.1335ZM272.301 19.4335C273.271 19.4335 273.911 18.7135 273.911 17.7435C273.911 16.7735 273.271 16.0635 272.301 16.0635C271.331 16.0635 270.681 16.7735 270.681 17.7435C270.681 18.7135 271.331 19.4335 272.301 19.4335ZM277.955 15.3735C278.875 15.3735 279.785 15.9135 279.785 17.2135V20.0435H279.065V17.3135C279.065 16.4335 278.445 16.0035 277.765 16.0035C277.075 16.0035 276.475 16.4335 276.475 17.3135V20.0435H275.755V15.4435H276.475V16.0635C276.825 15.5835 277.385 15.3735 277.955 15.3735ZM285.22 16.0135H284.12V18.8435C284.12 19.3335 284.42 19.4535 284.76 19.4535H285.17V20.0435H284.5C283.8 20.0435 283.39 19.6435 283.39 18.9435V16.0135H282.75V15.4435H283.39V14.0435H284.12V15.4435H285.22V16.0135ZM288.414 15.3735C289.334 15.3735 290.244 15.9135 290.244 17.2135V20.0435H289.524V17.3135C289.524 16.4335 288.904 16.0035 288.224 16.0035C287.534 16.0035 286.934 16.4335 286.934 17.3135V20.0435H286.214V13.5435H286.934V16.0635C287.284 15.5835 287.844 15.3735 288.414 15.3735ZM293.637 15.3635C294.957 15.3635 295.837 16.3735 295.837 17.7435V17.9735H292.067C292.157 18.8935 292.787 19.5035 293.697 19.5035C294.377 19.5035 294.847 19.1935 295.107 18.8035L295.617 19.1735C295.217 19.7635 294.537 20.1335 293.697 20.1335C292.297 20.1335 291.367 19.1135 291.367 17.7435C291.367 16.3735 292.257 15.3635 293.637 15.3635ZM293.637 15.9635C292.737 15.9635 292.167 16.5735 292.067 17.4735H295.167C295.067 16.6035 294.497 15.9635 293.637 15.9635Z" fill="white"/>
<path d="M235.472 41.1943L234.302 38.3143H228.866L227.696 41.1943H226.256L231.062 29.4943H232.106L236.912 41.1943H235.472ZM229.37 37.0543H233.78L231.566 31.6003L229.37 37.0543ZM242.842 32.7883C245.2 32.7883 246.892 34.6063 246.892 37.0723C246.892 39.5563 245.2 41.3383 242.842 41.3383C241.438 41.3383 240.394 40.7083 239.764 39.7003V44.5063H238.468V32.9143H239.764V34.4263C240.394 33.4183 241.438 32.7883 242.842 32.7883ZM242.68 40.0963C244.444 40.0963 245.614 38.8363 245.614 37.0723C245.614 35.3083 244.444 34.0303 242.68 34.0303C240.916 34.0303 239.764 35.3083 239.764 37.0723C239.764 38.8363 240.916 40.0963 242.68 40.0963ZM253.266 32.7883C255.624 32.7883 257.316 34.6063 257.316 37.0723C257.316 39.5563 255.624 41.3383 253.266 41.3383C251.862 41.3383 250.818 40.7083 250.188 39.7003V44.5063H248.892V32.9143H250.188V34.4263C250.818 33.4183 251.862 32.7883 253.266 32.7883ZM253.104 40.0963C254.868 40.0963 256.038 38.8363 256.038 37.0723C256.038 35.3083 254.868 34.0303 253.104 34.0303C251.34 34.0303 250.188 35.3083 250.188 37.0723C250.188 38.8363 251.34 40.0963 253.104 40.0963ZM262.559 38.6923L263.675 37.9543C264.089 39.0523 265.529 40.0423 267.473 40.0423C269.489 40.0423 270.335 39.2863 270.335 37.9363C270.335 36.4063 268.049 36.0463 266.987 35.7403C265.853 35.4343 262.973 34.9483 262.973 32.5363C262.973 30.3403 264.845 29.2963 267.347 29.2963C269.507 29.2963 271.235 30.3403 271.667 31.6183L270.551 32.2843C270.227 31.4203 268.895 30.6463 267.203 30.6463C265.457 30.6463 264.503 31.3303 264.503 32.4823C264.503 33.9223 266.591 34.2283 267.743 34.5343C268.787 34.8403 271.829 35.4523 271.829 37.8823C271.829 40.1863 270.155 41.3923 267.347 41.3923C264.827 41.3923 263.117 40.2223 262.559 38.6923ZM277.635 33.9403H275.655V39.0343C275.655 39.9163 276.195 40.1323 276.807 40.1323H277.545V41.1943H276.339C275.079 41.1943 274.341 40.4743 274.341 39.2143V33.9403H273.189V32.9143H274.341V30.3943H275.655V32.9143H277.635V33.9403ZM282.963 41.3563C280.479 41.3563 278.751 39.5203 278.751 37.0543C278.751 34.5703 280.479 32.7703 282.963 32.7703C285.447 32.7703 287.175 34.5703 287.175 37.0543C287.175 39.5203 285.447 41.3563 282.963 41.3563ZM282.963 40.0963C284.709 40.0963 285.861 38.8003 285.861 37.0543C285.861 35.3083 284.709 34.0303 282.963 34.0303C281.217 34.0303 280.047 35.3083 280.047 37.0543C280.047 38.8003 281.217 40.0963 282.963 40.0963ZM290.477 34.4443C291.107 33.3103 292.223 32.8063 293.393 32.7883V34.0303C292.115 34.0483 290.477 34.7143 290.477 36.7303V41.1943H289.181V32.9143H290.477V34.4443ZM298.323 32.7703C300.699 32.7703 302.283 34.5883 302.283 37.0543V37.4683H295.497C295.659 39.1243 296.793 40.2223 298.431 40.2223C299.655 40.2223 300.501 39.6643 300.969 38.9623L301.887 39.6283C301.167 40.6903 299.943 41.3563 298.431 41.3563C295.911 41.3563 294.237 39.5203 294.237 37.0543C294.237 34.5883 295.839 32.7703 298.323 32.7703ZM298.323 33.8503C296.703 33.8503 295.677 34.9483 295.497 36.5683H301.077C300.897 35.0023 299.871 33.8503 298.323 33.8503Z" fill="white"/>
<path d="M201.933 11.9312H186.029C184.726 11.9312 183.671 12.9869 183.671 14.2898V41.2009C183.671 42.5038 184.726 43.5596 186.029 43.5596H201.933C203.236 43.5596 204.292 42.5038 204.292 41.2009V14.2898C204.292 13.0094 203.214 11.9312 201.933 11.9312Z" fill="white"/>
<path d="M203.147 15.7275H184.794V37.9214H203.147V15.7275Z" fill="#404040"/>
<path d="M197.733 13.3462H190.208C189.916 13.3462 189.646 13.5933 189.646 13.9078C189.646 14.2223 189.893 14.4694 190.208 14.4694H197.733C198.025 14.4694 198.294 14.2223 198.294 13.9078C198.294 13.6158 198.047 13.3462 197.733 13.3462Z" fill="#6639A6"/>
<path d="M192.185 40.5944C192.185 39.606 192.993 38.7749 193.982 38.7749C194.97 38.7749 195.801 39.5836 195.801 40.5944C195.801 41.5828 194.993 42.3915 193.982 42.3915C192.993 42.4139 192.185 41.6053 192.185 40.5944Z" fill="#6639A6"/>
<path d="M153.762 37.8649C153.762 45.3228 147.652 51.4328 140.194 51.4328H13.5679C6.11003 51.4328 0 45.3228 0 37.8649V13.7617C0 6.30384 6.11003 0.193848 13.5679 0.193848H140.194C147.652 0.193848 153.762 6.30384 153.762 13.7617V37.8649Z" fill="#404040"/>
<path d="M54.9269 14.5938H55.6569V19.1938H54.9269V18.3638C54.5769 18.9138 53.9969 19.2738 53.2169 19.2738C51.9069 19.2738 50.9769 18.2638 50.9769 16.8938C50.9769 15.5138 51.9069 14.5238 53.2169 14.5238C53.9969 14.5238 54.5769 14.8738 54.9269 15.4238V14.5938ZM53.3069 18.5838C54.2969 18.5838 54.9269 17.8738 54.9269 16.8938C54.9269 15.9138 54.2969 15.2138 53.3069 15.2138C52.3269 15.2138 51.6769 15.9138 51.6769 16.8938C51.6769 17.8738 52.3269 18.5838 53.3069 18.5838ZM59.1079 14.5238C60.0279 14.5238 60.9379 15.0638 60.9379 16.3638V19.1938H60.2179V16.4638C60.2179 15.5838 59.5979 15.1538 58.9179 15.1538C58.2279 15.1538 57.6279 15.5838 57.6279 16.4638V19.1938H56.9079V14.5938H57.6279V15.2138C57.9779 14.7338 58.5379 14.5238 59.1079 14.5238ZM66.0109 12.6938H66.7409V19.1938H66.0109V18.3638C65.6609 18.9138 65.0809 19.2738 64.3009 19.2738C62.9909 19.2738 62.0609 18.2638 62.0609 16.8938C62.0609 15.5138 62.9909 14.5238 64.3009 14.5238C65.0809 14.5238 65.6609 14.8738 66.0109 15.4238V12.6938ZM64.3909 18.5838C65.3809 18.5838 66.0109 17.8738 66.0109 16.8938C66.0109 15.9138 65.3809 15.2138 64.3909 15.2138C63.4109 15.2138 62.7609 15.9138 62.7609 16.8938C62.7609 17.8738 63.4109 18.5838 64.3909 18.5838ZM68.7119 15.4438C69.0619 14.8138 69.6819 14.5338 70.3319 14.5238V15.2138C69.6219 15.2238 68.7119 15.5938 68.7119 16.7138V19.1938H67.9919V14.5938H68.7119V15.4438ZM73.1411 19.2838C71.7611 19.2838 70.8011 18.2638 70.8011 16.8938C70.8011 15.5138 71.7611 14.5138 73.1411 14.5138C74.5211 14.5138 75.4811 15.5138 75.4811 16.8938C75.4811 18.2638 74.5211 19.2838 73.1411 19.2838ZM73.1411 18.5838C74.1111 18.5838 74.7511 17.8638 74.7511 16.8938C74.7511 15.9238 74.1111 15.2138 73.1411 15.2138C72.1711 15.2138 71.5211 15.9238 71.5211 16.8938C71.5211 17.8638 72.1711 18.5838 73.1411 18.5838ZM77.0354 13.6138C76.8154 13.6138 76.5954 13.4338 76.5954 13.1638C76.5954 12.8938 76.8154 12.7338 77.0354 12.7338C77.2554 12.7338 77.4754 12.8938 77.4754 13.1638C77.4754 13.4338 77.2554 13.6138 77.0354 13.6138ZM77.3954 19.1938H76.6754V14.5938H77.4054L77.3954 19.1938ZM82.5441 12.6938H83.2741V19.1938H82.5441V18.3638C82.1941 18.9138 81.6141 19.2738 80.8341 19.2738C79.5241 19.2738 78.5941 18.2638 78.5941 16.8938C78.5941 15.5138 79.5241 14.5238 80.8341 14.5238C81.6141 14.5238 82.1941 14.8738 82.5441 15.4238V12.6938ZM80.9241 18.5838C81.9141 18.5838 82.5441 17.8738 82.5441 16.8938C82.5441 15.9138 81.9141 15.2138 80.9241 15.2138C79.9441 15.2138 79.2941 15.9138 79.2941 16.8938C79.2941 17.8738 79.9441 18.5838 80.9241 18.5838ZM90.3371 14.5938H91.0671V19.1938H90.3371V18.3638C89.9871 18.9138 89.4071 19.2738 88.6271 19.2738C87.3171 19.2738 86.3871 18.2638 86.3871 16.8938C86.3871 15.5138 87.3171 14.5238 88.6271 14.5238C89.4071 14.5238 89.9871 14.8738 90.3371 15.4238V14.5938ZM88.7171 18.5838C89.7071 18.5838 90.3371 17.8738 90.3371 16.8938C90.3371 15.9138 89.7071 15.2138 88.7171 15.2138C87.7371 15.2138 87.0871 15.9138 87.0871 16.8938C87.0871 17.8738 87.7371 18.5838 88.7171 18.5838ZM94.7481 14.5238C96.0581 14.5238 96.9981 15.5338 96.9981 16.9038C96.9981 18.2838 96.0581 19.2738 94.7481 19.2738C93.9681 19.2738 93.3881 18.9238 93.0381 18.3638V21.0338H92.3181V14.5938H93.0381V15.4338C93.3881 14.8738 93.9681 14.5238 94.7481 14.5238ZM94.6581 18.5838C95.6381 18.5838 96.2881 17.8838 96.2881 16.9038C96.2881 15.9238 95.6381 15.2138 94.6581 15.2138C93.6781 15.2138 93.0381 15.9238 93.0381 16.9038C93.0381 17.8838 93.6781 18.5838 94.6581 18.5838ZM100.539 14.5238C101.849 14.5238 102.789 15.5338 102.789 16.9038C102.789 18.2838 101.849 19.2738 100.539 19.2738C99.7591 19.2738 99.1791 18.9238 98.8291 18.3638V21.0338H98.1091V14.5938H98.8291V15.4338C99.1791 14.8738 99.7591 14.5238 100.539 14.5238ZM100.449 18.5838C101.429 18.5838 102.079 17.8838 102.079 16.9038C102.079 15.9238 101.429 15.2138 100.449 15.2138C99.4691 15.2138 98.8291 15.9238 98.8291 16.9038C98.8291 17.8838 99.4691 18.5838 100.449 18.5838ZM108.102 19.2838C106.722 19.2838 105.762 18.2638 105.762 16.8938C105.762 15.5138 106.722 14.5138 108.102 14.5138C109.482 14.5138 110.442 15.5138 110.442 16.8938C110.442 18.2638 109.482 19.2838 108.102 19.2838ZM108.102 18.5838C109.072 18.5838 109.712 17.8638 109.712 16.8938C109.712 15.9238 109.072 15.2138 108.102 15.2138C107.132 15.2138 106.482 15.9238 106.482 16.8938C106.482 17.8638 107.132 18.5838 108.102 18.5838ZM113.756 14.5238C114.676 14.5238 115.586 15.0638 115.586 16.3638V19.1938H114.866V16.4638C114.866 15.5838 114.246 15.1538 113.566 15.1538C112.876 15.1538 112.276 15.5838 112.276 16.4638V19.1938H111.556V14.5938H112.276V15.2138C112.626 14.7338 113.186 14.5238 113.756 14.5238Z" fill="white"/>
<path d="M60.1248 34.3746C60.0168 37.7046 57.8928 40.0986 54.5088 40.0986C51.0348 40.0986 48.6588 37.5786 48.6588 34.1046C48.6588 30.6306 51.0348 28.1106 54.5088 28.1106C56.5788 28.1106 58.2348 29.0106 59.2428 30.4506L58.1268 31.2426C57.2988 30.0906 56.0028 29.4786 54.5088 29.4786C51.8268 29.4786 50.0088 31.4226 50.0088 34.1046C50.0088 36.7866 51.8268 38.7306 54.5088 38.7306C56.7228 38.7306 58.3608 37.3086 58.5948 35.0586H54.4548V33.7986H60.1248V34.3746ZM66.1757 40.1166C63.6917 40.1166 61.9637 38.2806 61.9637 35.8146C61.9637 33.3306 63.6917 31.5306 66.1757 31.5306C68.6597 31.5306 70.3877 33.3306 70.3877 35.8146C70.3877 38.2806 68.6597 40.1166 66.1757 40.1166ZM66.1757 38.8566C67.9217 38.8566 69.0737 37.5606 69.0737 35.8146C69.0737 34.0686 67.9217 32.7906 66.1757 32.7906C64.4297 32.7906 63.2597 34.0686 63.2597 35.8146C63.2597 37.5606 64.4297 38.8566 66.1757 38.8566ZM76.3535 40.1166C73.8695 40.1166 72.1415 38.2806 72.1415 35.8146C72.1415 33.3306 73.8695 31.5306 76.3535 31.5306C78.8375 31.5306 80.5655 33.3306 80.5655 35.8146C80.5655 38.2806 78.8375 40.1166 76.3535 40.1166ZM76.3535 38.8566C78.0995 38.8566 79.2515 37.5606 79.2515 35.8146C79.2515 34.0686 78.0995 32.7906 76.3535 32.7906C74.6075 32.7906 73.4375 34.0686 73.4375 35.8146C73.4375 37.5606 74.6075 38.8566 76.3535 38.8566ZM89.4292 31.6746H90.7432V39.3426C90.7432 41.7186 89.0512 43.3746 86.3872 43.3746C84.9472 43.3746 83.7232 42.8166 82.9672 41.9166L83.8492 41.1786C84.5152 41.9166 85.4332 42.2406 86.3872 42.2406C87.9172 42.2406 89.4292 41.3226 89.4292 39.3426V38.4606C88.7992 39.4506 87.7552 40.0986 86.3512 40.0986C83.9932 40.0986 82.3192 38.2806 82.3192 35.8146C82.3192 33.3486 83.9932 31.5486 86.3512 31.5486C87.7552 31.5486 88.7992 32.1786 89.4292 33.1686V31.6746ZM86.5132 38.8566C88.2772 38.8566 89.4292 37.5786 89.4292 35.8146C89.4292 34.0506 88.2772 32.7906 86.5132 32.7906C84.7492 32.7906 83.5792 34.0506 83.5792 35.8146C83.5792 37.5786 84.7492 38.8566 86.5132 38.8566ZM94.291 39.9546H92.995V28.2546H94.291V39.9546ZM100.397 31.5306C102.773 31.5306 104.357 33.3486 104.357 35.8146V36.2286H97.5714C97.7334 37.8846 98.8674 38.9826 100.505 38.9826C101.729 38.9826 102.575 38.4246 103.043 37.7226L103.961 38.3886C103.241 39.4506 102.017 40.1166 100.505 40.1166C97.9854 40.1166 96.3114 38.2806 96.3114 35.8146C96.3114 33.3486 97.9134 31.5306 100.397 31.5306ZM100.397 32.6106C98.7774 32.6106 97.7514 33.7086 97.5714 35.3286H103.151C102.971 33.7626 101.945 32.6106 100.397 32.6106ZM115.249 28.2546C117.013 28.2546 118.597 29.6586 118.597 31.8186C118.597 33.9786 117.013 35.3826 115.249 35.3826H111.325V39.9546H109.975V28.2546H115.249ZM115.051 34.0686C116.311 34.0686 117.229 33.0786 117.229 31.8186C117.229 30.5766 116.329 29.5866 115.051 29.5866H111.325V34.0686H115.051ZM121.783 39.9546H120.487V28.2546H121.783V39.9546ZM130.914 31.6746H132.228V39.9546H130.914V38.4606C130.284 39.4506 129.24 40.0986 127.836 40.0986C125.478 40.0986 123.804 38.2806 123.804 35.8146C123.804 33.3306 125.478 31.5486 127.836 31.5486C129.24 31.5486 130.284 32.1786 130.914 33.1686V31.6746ZM127.998 38.8566C129.78 38.8566 130.914 37.5786 130.914 35.8146C130.914 34.0506 129.78 32.7906 127.998 32.7906C126.234 32.7906 125.064 34.0506 125.064 35.8146C125.064 37.5786 126.234 38.8566 127.998 38.8566ZM140.185 31.6746H141.535L136.927 43.2666H135.649L136.945 39.9366L133.705 31.6746H135.055L137.611 38.1546L140.185 31.6746Z" fill="white"/>
<path d="M8.67065 42.3127V9.33643L38.3224 25.3528L8.67065 42.3127Z" fill="#5CA9B3"/>
<path d="M8.67065 9.33643L29.6515 30.3172L38.3224 25.3528L8.67065 9.33643Z" fill="#C8DB9B"/>
<path d="M29.4718 20.5679L8.67065 42.3125L38.3224 25.3526L29.4718 20.5679Z" fill="#AC5067"/>
<path d="M29.6517 30.317L38.3225 25.3526L29.4719 20.5679L24.7996 25.4649L29.6517 30.317Z" fill="#F4A676"/>
</svg>
