<svg width="290" height="89" viewBox="0 0 290 89" fill="none" xmlns="http://www.w3.org/2000/svg">
<path d="M0.504 15.408L2.124 14.274C2.484 15.084 3.906 16.2 5.67 16.2C7.272 16.2 7.83 15.606 7.83 14.67C7.83 13.518 5.832 13.176 4.896 12.87C3.906 12.564 0.954 12.024 0.954 9.504C0.954 7.11 3.024 6.084 5.454 6.084C7.668 6.084 9.486 7.29 9.936 8.55L8.334 9.558C8.01 8.892 6.768 8.1 5.22 8.1C3.924 8.1 3.24 8.586 3.24 9.414C3.24 10.53 5.076 10.836 6.084 11.142C7.02 11.448 10.062 12.132 10.062 14.58C10.062 16.974 8.262 18.216 5.454 18.216C2.808 18.216 1.062 16.866 0.504 15.408ZM15.596 9.576C18.026 9.576 19.574 11.394 19.574 13.86V14.4H13.346C13.544 15.696 14.462 16.506 15.686 16.506C16.838 16.506 17.504 15.984 17.846 15.498L19.178 16.47C18.458 17.514 17.198 18.162 15.686 18.162C13.166 18.162 11.474 16.326 11.474 13.86C11.474 11.394 13.094 9.576 15.596 9.576ZM15.596 11.106C14.372 11.106 13.58 11.916 13.364 13.158H17.774C17.558 11.988 16.82 11.106 15.596 11.106ZM23.2861 18H21.3601V6.3H23.3041L23.2861 18ZM29.1839 9.576C31.6139 9.576 33.1619 11.394 33.1619 13.86V14.4H26.9339C27.1319 15.696 28.0499 16.506 29.2739 16.506C30.4259 16.506 31.0919 15.984 31.4339 15.498L32.7659 16.47C32.0459 17.514 30.7859 18.162 29.2739 18.162C26.7539 18.162 25.0619 16.326 25.0619 13.86C25.0619 11.394 26.6819 9.576 29.1839 9.576ZM29.1839 11.106C27.9599 11.106 27.1679 11.916 26.9519 13.158H31.3619C31.1459 11.988 30.4079 11.106 29.1839 11.106ZM40.852 12.33C40.51 11.88 39.916 11.412 38.926 11.412C37.504 11.412 36.532 12.438 36.532 13.86C36.532 15.282 37.504 16.326 38.926 16.326C39.916 16.326 40.492 15.894 40.852 15.426L42.238 16.47C41.518 17.514 40.33 18.162 38.872 18.162C36.37 18.162 34.642 16.362 34.642 13.86C34.642 11.358 36.37 9.576 38.872 9.576C40.33 9.576 41.518 10.224 42.238 11.25L40.852 12.33ZM48.1805 11.196H46.3445V15.444C46.3445 16.38 46.9205 16.488 47.4605 16.488H48.0905V18H46.6865C45.1565 18 44.4005 17.19 44.4005 15.75V11.196H43.3025V9.72H44.4005V7.182H46.3445V9.72H48.1805V11.196ZM53.0802 15.408L54.7002 14.274C55.0602 15.084 56.4822 16.2 58.2462 16.2C59.8482 16.2 60.4062 15.606 60.4062 14.67C60.4062 13.518 58.4082 13.176 57.4722 12.87C56.4822 12.564 53.5302 12.024 53.5302 9.504C53.5302 7.11 55.6002 6.084 58.0302 6.084C60.2442 6.084 62.0622 7.29 62.5122 8.55L60.9102 9.558C60.5862 8.892 59.3442 8.1 57.7962 8.1C56.5002 8.1 55.8162 8.586 55.8162 9.414C55.8162 10.53 57.6522 10.836 58.6602 11.142C59.5962 11.448 62.6382 12.132 62.6382 14.58C62.6382 16.974 60.8382 18.216 58.0302 18.216C55.3842 18.216 53.6382 16.866 53.0802 15.408ZM65.4362 8.316C64.8962 8.316 64.3562 7.902 64.3562 7.218C64.3562 6.534 64.8962 6.156 65.4362 6.156C65.9762 6.156 66.5342 6.534 66.5342 7.218C66.5342 7.902 65.9762 8.316 65.4362 8.316ZM66.4082 18H64.4642V9.72H66.4262L66.4082 18ZM74.5501 9.72V11.178L70.6801 16.398H74.5141V18H68.2501V16.542L72.1201 11.322H68.2861V9.72H74.5501ZM79.7738 9.576C82.2038 9.576 83.7518 11.394 83.7518 13.86V14.4H77.5238C77.7218 15.696 78.6398 16.506 79.8638 16.506C81.0158 16.506 81.6818 15.984 82.0238 15.498L83.3558 16.47C82.6358 17.514 81.3758 18.162 79.8638 18.162C77.3438 18.162 75.6518 16.326 75.6518 13.86C75.6518 11.394 77.2718 9.576 79.7738 9.576ZM79.7738 11.106C78.5498 11.106 77.7578 11.916 77.5418 13.158H81.9518C81.7358 11.988 80.9978 11.106 79.7738 11.106Z" fill="#3F4646"/>
<path d="M105.54 15.462L106.908 14.526C107.304 15.462 108.744 16.524 110.598 16.524C112.398 16.524 113.1 15.84 113.1 14.706C113.1 13.356 110.958 13.014 109.968 12.708C108.906 12.402 105.972 11.88 105.972 9.432C105.972 7.128 107.952 6.084 110.418 6.084C112.614 6.084 114.378 7.218 114.828 8.478L113.46 9.324C113.136 8.55 111.858 7.776 110.238 7.776C108.708 7.776 107.88 8.352 107.88 9.342C107.88 10.62 109.86 10.926 110.94 11.232C111.912 11.538 114.972 12.186 114.972 14.634C114.972 16.974 113.226 18.216 110.418 18.216C107.844 18.216 106.116 16.938 105.54 15.462ZM117.717 8.136C117.249 8.136 116.763 7.758 116.763 7.182C116.763 6.588 117.249 6.264 117.717 6.264C118.185 6.264 118.653 6.588 118.653 7.182C118.653 7.758 118.185 8.136 117.717 8.136ZM118.527 18H116.907V9.72H118.527V18ZM126.71 9.72V10.962L122.498 16.65H126.638V18H120.446V16.758L124.658 11.07H120.518V9.72H126.71ZM131.988 9.576C134.4 9.576 135.966 11.394 135.966 13.86V14.328H129.45C129.612 15.804 130.656 16.758 132.096 16.758C133.284 16.758 134.04 16.218 134.436 15.642L135.57 16.452C134.85 17.496 133.608 18.162 132.096 18.162C129.576 18.162 127.884 16.326 127.884 13.86C127.884 11.394 129.504 9.576 131.988 9.576ZM131.988 10.872C130.566 10.872 129.648 11.826 129.45 13.266H134.454C134.256 11.88 133.374 10.872 131.988 10.872ZM152.783 12.42C152.657 15.75 150.551 18.144 147.167 18.144C143.693 18.144 141.281 15.624 141.281 12.15C141.281 8.676 143.693 6.156 147.167 6.156C149.237 6.156 150.893 7.056 151.901 8.496L150.515 9.486C149.741 8.388 148.517 7.83 147.167 7.83C144.647 7.83 142.973 9.648 142.973 12.15C142.973 14.634 144.647 16.452 147.167 16.452C149.093 16.452 150.605 15.246 150.875 13.248H147.077V11.7H152.783V12.42ZM160.599 9.72H162.219V18H160.599V17.01C159.969 17.82 158.997 18.144 158.043 18.144C156.441 18.144 154.767 17.208 154.767 14.814V9.72H156.387V14.58C156.387 16.11 157.467 16.74 158.511 16.74C159.537 16.74 160.599 16.11 160.599 14.58V9.72ZM165.336 8.136C164.868 8.136 164.382 7.758 164.382 7.182C164.382 6.588 164.868 6.264 165.336 6.264C165.804 6.264 166.272 6.588 166.272 7.182C166.272 7.758 165.804 8.136 165.336 8.136ZM166.146 18H164.526V9.72H166.146V18ZM175.013 6.3H176.633V18H175.013V16.722C174.401 17.604 173.447 18.144 172.169 18.144C169.829 18.144 168.155 16.326 168.155 13.86C168.155 11.358 169.829 9.594 172.169 9.594C173.447 9.594 174.401 10.134 175.013 10.998V6.3ZM172.385 16.614C173.969 16.614 175.013 15.444 175.013 13.86C175.013 12.258 173.969 11.124 172.385 11.124C170.783 11.124 169.739 12.258 169.739 13.86C169.739 15.444 170.783 16.614 172.385 16.614ZM182.63 9.576C185.042 9.576 186.608 11.394 186.608 13.86V14.328H180.092C180.254 15.804 181.298 16.758 182.738 16.758C183.926 16.758 184.682 16.218 185.078 15.642L186.212 16.452C185.492 17.496 184.25 18.162 182.738 18.162C180.218 18.162 178.526 16.326 178.526 13.86C178.526 11.394 180.146 9.576 182.63 9.576ZM182.63 10.872C181.208 10.872 180.29 11.826 180.092 13.266H185.096C184.898 11.88 184.016 10.872 182.63 10.872Z" fill="#807D7E"/>
<path d="M203 11H216M211 5L216.293 10.2929C216.683 10.6834 216.683 11.3166 216.293 11.7071L211 17" stroke="#807D7E" stroke-width="1.8" stroke-linecap="round"/>
<rect x="0.75" y="47.75" width="36.5" height="36.5" rx="11.25" stroke="#BEBCBD" stroke-width="1.5"/>
<path d="M18.6555 61.9L15.5335 66.45L18.6555 71H17.1295L14.7775 67.556L12.4115 71H10.8855L14.0075 66.45L10.8855 61.9H12.4115L14.7775 65.344L17.1295 61.9H18.6555ZM19.3653 69.026L20.4293 68.298C20.7373 69.026 21.8573 69.852 23.2993 69.852C24.6993 69.852 25.2453 69.32 25.2453 68.438C25.2453 67.388 23.5793 67.122 22.8093 66.884C21.9833 66.646 19.7013 66.24 19.7013 64.336C19.7013 62.544 21.2413 61.732 23.1593 61.732C24.8673 61.732 26.2393 62.614 26.5893 63.594L25.5253 64.252C25.2733 63.65 24.2793 63.048 23.0193 63.048C21.8293 63.048 21.1853 63.496 21.1853 64.266C21.1853 65.26 22.7253 65.498 23.5653 65.736C24.3213 65.974 26.7013 66.478 26.7013 68.382C26.7013 70.202 25.3433 71.168 23.1593 71.168C21.1573 71.168 19.8133 70.174 19.3653 69.026Z" fill="#3C4242"/>
<rect x="62.75" y="47.75" width="36.5" height="36.5" rx="11.25" stroke="#BEBCBD" stroke-width="1.5"/>
<path d="M77.1954 69.026L78.2594 68.298C78.5674 69.026 79.6874 69.852 81.1294 69.852C82.5294 69.852 83.0754 69.32 83.0754 68.438C83.0754 67.388 81.4094 67.122 80.6394 66.884C79.8134 66.646 77.5314 66.24 77.5314 64.336C77.5314 62.544 79.0714 61.732 80.9894 61.732C82.6974 61.732 84.0694 62.614 84.4194 63.594L83.3554 64.252C83.1034 63.65 82.1094 63.048 80.8494 63.048C79.6594 63.048 79.0154 63.496 79.0154 64.266C79.0154 65.26 80.5554 65.498 81.3954 65.736C82.1514 65.974 84.5314 66.478 84.5314 68.382C84.5314 70.202 83.1734 71.168 80.9894 71.168C78.9874 71.168 77.6434 70.174 77.1954 69.026Z" fill="#3C4242"/>
<rect x="124.75" y="47.75" width="36.5" height="36.5" rx="11.25" stroke="#BEBCBD" stroke-width="1.5"/>
<path d="M147.263 61.9V71H145.961V64.462L143.315 69.908H142.405L139.773 64.476V71H138.457V61.9H139.815L142.867 67.962L145.905 61.9H147.263Z" fill="#3C4242"/>
<rect x="186" y="47" width="38" height="38" rx="12" fill="#3C4242"/>
<path d="M202.016 69.796H206.664V71H200.7V61.9H202.016V69.796Z" fill="white"/>
<rect x="248.75" y="47.75" width="36.5" height="36.5" rx="11.25" stroke="#BEBCBD" stroke-width="1.5"/>
<path d="M267.059 61.9L263.937 66.45L267.059 71H265.533L263.181 67.556L260.815 71H259.289L262.411 66.45L259.289 61.9H260.815L263.181 65.344L265.533 61.9H267.059ZM269.638 69.796H274.286V71H268.322V61.9H269.638V69.796Z" fill="#3C4242"/>
</svg>
