<svg width="178" height="38" viewBox="0 0 178 38" fill="none" xmlns="http://www.w3.org/2000/svg">
<rect y="0.193848" width="37.024" height="37.024" rx="10.68" fill="#F6F6F6"/>
<path d="M22.4368 19.4627L22.9311 16.2413H19.8401V14.1509C19.8401 13.2695 20.2719 12.4105 21.6563 12.4105H23.0615V9.66783C23.0615 9.66783 21.7863 9.4502 20.5671 9.4502C18.0215 9.4502 16.3577 10.9931 16.3577 13.7862V16.2413H13.5281V19.4627H16.3577V27.2502H19.8401V19.4627H22.4368Z" fill="#2A2F2F"/>
<rect x="46.9919" y="0.193848" width="37.024" height="37.024" rx="10.68" fill="#F6F6F6"/>
<path d="M65.4657 14.6696C63.2546 14.6696 61.4711 16.453 61.4711 18.6641C61.4711 20.8752 63.2546 22.6587 65.4657 22.6587C67.6768 22.6587 69.4603 20.8752 69.4603 18.6641C69.4603 16.453 67.6768 14.6696 65.4657 14.6696ZM65.4657 21.2611C64.0368 21.2611 62.8687 20.0965 62.8687 18.6641C62.8687 17.2318 64.0334 16.0671 65.4657 16.0671C66.898 16.0671 68.0627 17.2318 68.0627 18.6641C68.0627 20.0965 66.8946 21.2611 65.4657 21.2611ZM70.5554 14.5062C70.5554 15.0242 70.1382 15.4379 69.6237 15.4379C69.1057 15.4379 68.692 15.0207 68.692 14.5062C68.692 13.9916 69.1091 13.5744 69.6237 13.5744C70.1382 13.5744 70.5554 13.9916 70.5554 14.5062ZM73.2011 15.4518C73.142 14.2037 72.8569 13.0982 71.9425 12.1873C71.0317 11.2764 69.9261 10.9914 68.678 10.9288C67.3917 10.8558 63.5362 10.8558 62.2499 10.9288C61.0053 10.9879 59.8997 11.273 58.9854 12.1838C58.0711 13.0947 57.7895 14.2002 57.7269 15.4483C57.6539 16.7346 57.6539 20.5901 57.7269 21.8765C57.786 23.1246 58.0711 24.2301 58.9854 25.141C59.8997 26.0518 61.0018 26.3369 62.2499 26.3995C63.5362 26.4725 67.3917 26.4725 68.678 26.3995C69.9261 26.3404 71.0317 26.0553 71.9425 25.141C72.8534 24.2301 73.1385 23.1246 73.2011 21.8765C73.2741 20.5901 73.2741 16.7381 73.2011 15.4518ZM71.5393 23.2567C71.2681 23.9381 70.7431 24.463 70.0582 24.7377C69.0327 25.1444 66.5991 25.0506 65.4657 25.0506C64.3323 25.0506 61.8953 25.141 60.8732 24.7377C60.1918 24.4665 59.6668 23.9416 59.3921 23.2567C58.9854 22.2311 59.0793 19.7975 59.0793 18.6641C59.0793 17.5308 58.9889 15.0937 59.3921 14.0716C59.6633 13.3902 60.1883 12.8652 60.8732 12.5906C61.8988 12.1838 64.3323 12.2777 65.4657 12.2777C66.5991 12.2777 69.0361 12.1873 70.0582 12.5906C70.7396 12.8617 71.2646 13.3867 71.5393 14.0716C71.946 15.0972 71.8521 17.5308 71.8521 18.6641C71.8521 19.7975 71.946 22.2346 71.5393 23.2567Z" fill="#2A2F2F"/>
<rect x="93.9839" y="0.193848" width="37.024" height="37.024" rx="10.68" fill="#F6F6F6"/>
<path d="M121.346 15.1888C121.358 15.347 121.358 15.5051 121.358 15.6632C121.358 20.4859 117.687 26.0428 110.978 26.0428C108.911 26.0428 106.991 25.4441 105.376 24.4051C105.67 24.439 105.952 24.4503 106.257 24.4503C107.962 24.4503 109.532 23.8743 110.786 22.8916C109.182 22.8578 107.838 21.8074 107.375 20.3617C107.601 20.3955 107.827 20.4181 108.064 20.4181C108.392 20.4181 108.719 20.3729 109.024 20.2939C107.353 19.9551 106.099 18.4868 106.099 16.7136V16.6684C106.584 16.9395 107.149 17.1089 107.748 17.1315C106.765 16.4764 106.121 15.3583 106.121 14.0933C106.121 13.4156 106.302 12.7944 106.618 12.2523C108.414 14.466 111.114 15.9117 114.14 16.0698C114.084 15.7987 114.05 15.5164 114.05 15.234C114.05 13.2236 115.676 11.5859 117.698 11.5859C118.749 11.5859 119.697 12.0264 120.364 12.738C121.188 12.5799 121.979 12.2749 122.679 11.857C122.408 12.7041 121.832 13.4157 121.075 13.8674C121.809 13.7884 122.521 13.585 123.176 13.3027C122.679 14.0255 122.058 14.6693 121.346 15.1888Z" fill="#2A2F2F"/>
<rect x="140.976" y="0.193848" width="37.024" height="37.024" rx="10.68" fill="#F6F6F6"/>
<path d="M155.839 15.4379V24.4658H153.428V15.4379H155.839ZM153.277 13.0849C153.277 12.7345 153.4 12.4453 153.645 12.2172C153.889 11.9891 154.217 11.8751 154.629 11.8751C155.035 11.8751 155.361 11.9891 155.605 12.2172C155.856 12.4453 155.981 12.7345 155.981 13.0849C155.981 13.4354 155.856 13.7246 155.605 13.9527C155.361 14.1808 155.035 14.2948 154.629 14.2948C154.217 14.2948 153.889 14.1808 153.645 13.9527C153.4 13.7246 153.277 13.4354 153.277 13.0849ZM160.519 17.3653V24.4658H158.116V15.4379H160.369L160.519 17.3653ZM160.169 19.6348H159.518C159.518 18.9673 159.604 18.3665 159.777 17.8325C159.949 17.293 160.191 16.8341 160.503 16.4558C160.814 16.072 161.184 15.78 161.612 15.5797C162.046 15.3739 162.53 15.271 163.064 15.271C163.487 15.271 163.874 15.3322 164.224 15.4546C164.574 15.5769 164.875 15.7716 165.125 16.0386C165.381 16.3056 165.576 16.6589 165.709 17.0983C165.848 17.5377 165.918 18.0745 165.918 18.7086V24.4658H163.498V18.7003C163.498 18.2998 163.443 17.9883 163.331 17.7658C163.22 17.5433 163.056 17.3875 162.839 17.2985C162.628 17.204 162.366 17.1567 162.055 17.1567C161.732 17.1567 161.451 17.2207 161.212 17.3486C160.978 17.4765 160.784 17.6545 160.628 17.8826C160.478 18.1051 160.364 18.3665 160.286 18.6669C160.208 18.9673 160.169 19.2899 160.169 19.6348Z" fill="#2A2F2F"/>
</svg>
